<mxfile host="app.diagrams.net" modified="2023-09-18T06:15:35.445Z" agent="Mozilla/5.0 (Windows NT 10.0; Win64; x64) AppleWebKit/537.36 (KHTML, like Gecko) Chrome/117.0.0.0 Safari/537.36 Edg/117.0.2045.31" etag="3uisdxCGW3quXgDs5Di9" version="21.7.5" type="github">
  <diagram name="Page-1" id="ZSbeu8wCk58w5g4S_x-9">
    <mxGraphModel dx="1386" dy="785" grid="1" gridSize="10" guides="1" tooltips="1" connect="1" arrows="1" fold="1" page="1" pageScale="1" pageWidth="827" pageHeight="1169" math="0" shadow="0">
      <root>
        <mxCell id="0" />
        <mxCell id="1" parent="0" />
        <mxCell id="6SPc_UTTP27_pumbtBEv-3" style="edgeStyle=orthogonalEdgeStyle;rounded=0;orthogonalLoop=1;jettySize=auto;html=1;" edge="1" parent="1" source="6SPc_UTTP27_pumbtBEv-1" target="6SPc_UTTP27_pumbtBEv-2">
          <mxGeometry relative="1" as="geometry" />
        </mxCell>
        <mxCell id="6SPc_UTTP27_pumbtBEv-1" value="User Interface" style="whiteSpace=wrap;html=1;aspect=fixed;" vertex="1" parent="1">
          <mxGeometry x="60" y="200" width="60" height="60" as="geometry" />
        </mxCell>
        <mxCell id="6SPc_UTTP27_pumbtBEv-5" value="" style="edgeStyle=orthogonalEdgeStyle;rounded=0;orthogonalLoop=1;jettySize=auto;html=1;" edge="1" parent="1" source="6SPc_UTTP27_pumbtBEv-2" target="6SPc_UTTP27_pumbtBEv-4">
          <mxGeometry relative="1" as="geometry" />
        </mxCell>
        <mxCell id="6SPc_UTTP27_pumbtBEv-2" value="API Servers&lt;br&gt;" style="rounded=1;whiteSpace=wrap;html=1;" vertex="1" parent="1">
          <mxGeometry x="240" y="200" width="120" height="60" as="geometry" />
        </mxCell>
        <mxCell id="6SPc_UTTP27_pumbtBEv-7" value="" style="edgeStyle=orthogonalEdgeStyle;rounded=0;orthogonalLoop=1;jettySize=auto;html=1;" edge="1" parent="1" source="6SPc_UTTP27_pumbtBEv-4" target="6SPc_UTTP27_pumbtBEv-6">
          <mxGeometry relative="1" as="geometry" />
        </mxCell>
        <mxCell id="6SPc_UTTP27_pumbtBEv-9" value="" style="edgeStyle=orthogonalEdgeStyle;rounded=0;orthogonalLoop=1;jettySize=auto;html=1;" edge="1" parent="1" source="6SPc_UTTP27_pumbtBEv-4" target="6SPc_UTTP27_pumbtBEv-8">
          <mxGeometry relative="1" as="geometry" />
        </mxCell>
        <mxCell id="6SPc_UTTP27_pumbtBEv-11" style="edgeStyle=orthogonalEdgeStyle;rounded=0;orthogonalLoop=1;jettySize=auto;html=1;entryX=0.5;entryY=1;entryDx=0;entryDy=0;" edge="1" parent="1" source="6SPc_UTTP27_pumbtBEv-4" target="6SPc_UTTP27_pumbtBEv-2">
          <mxGeometry relative="1" as="geometry" />
        </mxCell>
        <mxCell id="6SPc_UTTP27_pumbtBEv-4" value="AWS Lambda" style="rounded=1;whiteSpace=wrap;html=1;" vertex="1" parent="1">
          <mxGeometry x="240" y="370" width="120" height="60" as="geometry" />
        </mxCell>
        <mxCell id="6SPc_UTTP27_pumbtBEv-10" style="edgeStyle=orthogonalEdgeStyle;rounded=0;orthogonalLoop=1;jettySize=auto;html=1;entryX=0.5;entryY=1;entryDx=0;entryDy=0;" edge="1" parent="1" source="6SPc_UTTP27_pumbtBEv-6" target="6SPc_UTTP27_pumbtBEv-4">
          <mxGeometry relative="1" as="geometry" />
        </mxCell>
        <mxCell id="6SPc_UTTP27_pumbtBEv-6" value="S1" style="ellipse;whiteSpace=wrap;html=1;rounded=1;" vertex="1" parent="1">
          <mxGeometry x="160" y="520" width="80" height="80" as="geometry" />
        </mxCell>
        <mxCell id="6SPc_UTTP27_pumbtBEv-8" value="S2" style="ellipse;whiteSpace=wrap;html=1;rounded=1;" vertex="1" parent="1">
          <mxGeometry x="350" y="520" width="80" height="80" as="geometry" />
        </mxCell>
        <mxCell id="6SPc_UTTP27_pumbtBEv-12" value="Request" style="text;html=1;align=center;verticalAlign=middle;resizable=0;points=[];autosize=1;strokeColor=none;fillColor=none;" vertex="1" parent="1">
          <mxGeometry x="135" y="208" width="70" height="30" as="geometry" />
        </mxCell>
      </root>
    </mxGraphModel>
  </diagram>
</mxfile>
